Coordinates
version=1
nRows=65
nColumns=12
inDegrees=yes

Units are S.I. units (second, meters, Newtons, ...)
Angles are in degrees

endheader
time	SC_y	SC_z	SC_x	AC_y	AC_z	AC_x	GH_y	GH_z	GH_yy	EL_x	PS_y
       0.0              -57.79          12.14          3.162           54.5         -9.438         -6.829         -145.1          53.88         -121.7          115.3          5.879
   0.00493              -57.78          12.14           3.17          54.49          -9.44         -6.828         -145.1          53.87         -121.7          115.3          5.882
  0.009859              -57.78          12.14          3.179          54.49         -9.441         -6.827         -145.1          53.86         -121.7          115.3          5.885
   0.01479              -57.77          12.14          3.189          54.49         -9.443         -6.826         -145.1          53.84         -121.6          115.3          5.888
   0.01972              -57.77          12.14          3.199          54.49         -9.445         -6.825         -145.0          53.83         -121.6          115.3          5.892
   0.02465              -57.76          12.13           3.21          54.49         -9.446         -6.824         -145.0          53.82         -121.6          115.3          5.895
   0.02958              -57.76          12.13          3.221          54.49         -9.448         -6.823         -145.0           53.8         -121.5          115.3          5.899
   0.03451              -57.75          12.13          3.234          54.48          -9.45         -6.821         -145.0          53.79         -121.5          115.3          5.903
   0.03944              -57.74          12.13          3.247          54.48         -9.452          -6.82         -144.9          53.77         -121.5          115.3          5.907
   0.04437              -57.74          12.13          3.261          54.48         -9.455         -6.818         -144.9          53.76         -121.4          115.3          5.912
    0.0493              -57.73          12.12          3.277          54.48         -9.457         -6.817         -144.9          53.74         -121.4          115.3          5.917
   0.05423              -57.72          12.12          3.293          54.47          -9.46         -6.815         -144.8          53.72         -121.3          115.3          5.923
   0.05916              -57.71          12.12          3.311          54.47         -9.463         -6.813         -144.8          53.69         -121.3          115.3          5.928
   0.06409               -57.7          12.12           3.33          54.47         -9.466         -6.811         -144.7          53.67         -121.2          115.3          5.935
   0.06902              -57.69          12.11           3.35          54.46          -9.47         -6.809         -144.7          53.65         -121.1          115.3          5.942
   0.07395              -57.68          12.11          3.373          54.46         -9.473         -6.806         -144.7          53.62         -121.1          115.3          5.949
   0.07888              -57.67          12.11          3.397          54.45         -9.477         -6.804         -144.6          53.59         -121.0          115.3          5.957
    0.0838              -57.65           12.1          3.424          54.45         -9.482         -6.801         -144.5          53.56         -120.9          115.3          5.966
   0.08873              -57.64           12.1          3.453          54.44         -9.487         -6.798         -144.5          53.52         -120.8          115.3          5.975
   0.09366              -57.62          12.09          3.485          54.44         -9.492         -6.794         -144.4          53.48         -120.7          115.3          5.986
   0.09859               -57.6          12.09           3.52          54.43         -9.498          -6.79         -144.3          53.44         -120.6          115.3          5.997
    0.1035              -57.58          12.08          3.558          54.42         -9.504         -6.786         -144.2          53.39         -120.5          115.3           6.01
    0.1085              -57.56          12.08            3.6          54.41         -9.511         -6.781         -144.1          53.34         -120.4          115.2          6.024
    0.1134              -57.54          12.07          3.647          54.41         -9.519         -6.776         -144.0          53.28         -120.3          115.2           6.04
    0.1183              -57.51          12.06            3.7           54.4         -9.527         -6.771         -143.9          53.22         -120.1          115.2          6.057
    0.1232              -57.48          12.05          3.758          54.39         -9.537         -6.764         -143.8          53.14         -119.9          115.2          6.076
    0.1282              -57.45          12.04          3.823          54.37         -9.548         -6.757         -143.6          53.06         -119.7          115.2          6.098
    0.1331              -57.41          12.03          3.897          54.36          -9.56         -6.749         -143.5          52.97         -119.5          115.2          6.122
     0.138              -57.36          12.02           3.98          54.34         -9.574          -6.74         -143.3          52.87         -119.3          115.2          6.149
     0.143              -57.32           12.0          4.074          54.33         -9.589          -6.73         -143.1          52.75         -119.0          115.2           6.18
    0.1479              -57.26          11.99          4.182          54.31         -9.607         -6.718         -142.8          52.62         -118.7          115.2          6.216
    0.1528               -57.2          11.97          4.305          54.28         -9.627         -6.705         -142.5          52.47         -118.3          115.2          6.257
    0.1578              -57.12          11.95          4.448          54.26         -9.651         -6.689         -142.2          52.29         -117.9          115.2          6.304
    0.1627              -57.04          11.92          4.613          54.23         -9.678         -6.671         -141.8          52.09         -117.4          115.2          6.358
    0.1676              -56.94          11.89          4.807          54.19          -9.71          -6.65         -141.4          51.85         -116.8          115.2          6.422
    0.1725              -56.82          11.86          5.035          54.15         -9.748         -6.626         -140.9          51.57         -116.1          115.2          6.498
    0.1775              -56.68          11.82          5.307           54.1         -9.793         -6.596         -140.3          51.24         -115.3          115.2          6.587
    0.1824              -56.51          11.77          5.632          54.04         -9.847         -6.561         -139.5          50.83         -114.3          115.2          6.695
    0.1873               -56.3          11.71          6.026          53.96         -9.912         -6.518         -138.6          50.35         -113.2          115.2          6.825
    0.1923              -56.05          11.64          6.507          53.87         -9.992         -6.466         -137.5          49.76         -111.7          115.2          6.984
    0.1972              -55.75          11.55          7.101          53.76         -10.09         -6.401         -136.2          49.03         -109.9          115.2          7.179
    0.2021              -55.36          11.44          7.841          53.62         -10.21         -6.321         -134.5          48.11         -107.7          115.2          7.424
     0.207              -54.88           11.3          8.773          53.45         -10.37         -6.219         -132.4          46.97         -104.9          115.2          7.732
     0.212              -54.26          11.12          9.959          53.23         -10.56         -6.091         -129.7          45.51         -101.4          115.1          8.123
    0.2169              -53.48          10.89          11.48          52.94         -10.81         -5.926         -126.2          43.64         -96.86          115.1          8.624
    0.2218              -52.47          10.59          13.42          52.58         -11.14         -5.714         -121.8          41.24         -91.05          115.1          9.266
    0.2268              -51.18          10.22          15.91          52.12         -11.55         -5.444         -116.1          38.18         -83.61          115.0          10.09
    0.2317              -49.56          9.747          19.04          51.53         -12.06         -5.104         -109.0          34.32         -74.27          115.0          11.12
    0.2366              -47.58          9.172          22.85          50.82         -12.69          -4.69         -100.4          29.63         -62.88          114.9          12.38
    0.2416              -45.29          8.505          27.26           50.0         -13.42          -4.21          -90.3          24.19         -49.68          114.8          13.84
    0.2465              -42.81          7.784          32.05           49.1         -14.21         -3.691         -79.42           18.3         -35.39          114.7          15.41
    0.2514              -40.33          7.062          36.83          48.21         -15.01         -3.171         -68.54          12.41         -21.09          114.7          16.99
    0.2563              -38.04          6.395          41.25          47.38         -15.74         -2.691          -58.5          6.967         -7.892          114.6          18.45
    0.2613              -36.07           5.82          45.06          46.67         -16.37         -2.277         -49.83          2.273          3.496          114.5          19.71
    0.2662              -34.44          5.349          48.19          46.09         -16.88         -1.937         -42.72         -1.579          12.84          114.5          20.74
    0.2711              -33.15          4.973          50.67          45.62         -17.29         -1.667         -37.06         -4.642          20.27          114.4          21.56
    0.2761              -32.15          4.679          52.62          45.26         -17.62         -1.455         -32.63          -7.04          26.09          114.4          22.21
     0.281              -31.36          4.451          54.14          44.98         -17.87          -1.29         -29.18         -8.909          30.63          114.4          22.71
    0.2859              -30.74          4.272          55.32          44.75         -18.06         -1.162         -26.48         -10.37          34.17          114.3           23.1
    0.2909              -30.26          4.131          56.25          44.58         -18.22          -1.06         -24.36         -11.52          36.95          114.3          23.41
    0.2958              -29.88          4.019          56.99          44.44         -18.34          -0.98         -22.68         -12.43          39.17          114.3          23.65
    0.3007              -29.57           3.93          57.59          44.33         -18.44        -0.9155         -21.33         -13.16          40.94          114.3          23.85
    0.3056              -29.32          3.857          58.07          44.24         -18.52        -0.8632         -20.23         -13.75          42.38          114.3           24.0
    0.3106              -29.12          3.798          58.46          44.17         -18.58        -0.8204         -19.34         -14.24          43.55          114.3          24.13
    0.3155              -28.95          3.749          58.79          44.11         -18.64        -0.7851          -18.6         -14.64          44.53          114.3          24.24
